<?xml version="1.0" encoding="UTF-8" standalone="no"?>
<svg
   viewBox="0 0 1583.6993 1544.3985"
   version="1.1"
   sodipodi:docname="favicon.svg"
   inkscape:version="1.4 (e7c3feb100, 2024-10-09)"
   id="svg1"
   xmlns:inkscape="http://www.inkscape.org/namespaces/inkscape"
   xmlns:sodipodi="http://sodipodi.sourceforge.net/DTD/sodipodi-0.dtd"
   xmlns="http://www.w3.org/2000/svg"
   xmlns:svg="http://www.w3.org/2000/svg">
  <defs
     id="defs1" />
  <sodipodi:namedview
     id="namedview1"
     pagecolor="#ffffff"
     bordercolor="#000000"
     borderopacity="0.25"
     inkscape:showpageshadow="2"
     inkscape:pageopacity="0.0"
     inkscape:pagecheckerboard="0"
     inkscape:deskcolor="#d1d1d1"
     inkscape:zoom="0.41666667"
     inkscape:cx="680.4"
     inkscape:cy="610.8"
     inkscape:window-width="3440"
     inkscape:window-height="1363"
     inkscape:window-x="0"
     inkscape:window-y="280"
     inkscape:window-maximized="1" />
  <path
     fill-rule="nonzero"
     fill="#000000"
     fill-opacity="1"
     d="m 955.6485,734.3281 c 0,29.1602 -23.6406,52.8008 -52.8008,52.8008 -29.1602,0 -52.8008,-23.6406 -52.8008,-52.8008 V 518.73828 L 541.625,210.32031 V 1469.5976 c 0,29.1602 -23.64062,52.8008 -52.80078,52.8008 -29.16015,0 -52.80078,-23.6406 -52.80078,-52.8008 V 210.32031 L 127.60157,518.73828 V 734.3281 c 0,29.1602 -23.64063,52.8008 -52.80079,52.8008 C 45.63672,787.1289 22,763.4883 22,734.3281 V 496.87891 c 0.008,-13.50782 5.16407,-27.01953 15.46875,-37.32813 L 451.49219,45.51953 c 20.61328,-20.60937 54.05078,-20.60937 74.66406,0 L 939.7383,459.12109 c 9.8203,9.57813 15.9102,22.95704 15.9102,37.75782 z m 86.418,599.7539 V 74.80078 C 1042.0665,45.64063 1065.7071,22 1094.8672,22 c 29.1602,0 52.8086,23.64063 52.8086,52.80078 V 1334.082 l 308.4219,-308.4219 V 810.0703 c 0,-29.1602 23.6406,-52.8008 52.8008,-52.8008 29.1601,0 52.8008,23.6406 52.8008,52.8008 v 237.4492 c -0.012,13.5117 -5.1719,27.0235 -15.4727,37.332 l -414.0273,414.0274 c -20.6133,20.6133 -54.043,20.6133 -74.6602,0 L 643.95706,1085.289 c -9.8203,-9.5898 -15.9102,-22.9648 -15.9102,-37.7695 V 810.0703 c 0,-29.1602 23.6406,-52.8008 52.8008,-52.8008 29.1602,0 52.8008,23.6406 52.8008,52.8008 v 215.5898 l 308.41804,308.4219"
     id="path1"
     style="fill:#cf7331;fill-opacity:1;stroke:#0d4d02;stroke-width:44;stroke-dasharray:none;stroke-opacity:1;paint-order:stroke fill markers"
     sodipodi:nodetypes="sssccsssccssscccccsscsssccsssccsccsssscc" />
</svg>
